<?xml version="1.0" encoding="iso-8859-1"?>
<!-- Generator: Adobe Illustrator 19.0.0, SVG Export Plug-In . SVG Version: 6.00 Build 0)  -->
<svg version="1.1" id="Capa_1" xmlns="http://www.w3.org/2000/svg" xmlns:xlink="http://www.w3.org/1999/xlink" x="0px" y="0px"
	 viewBox="0 0 406.301 406.301" style="enable-background:new 0 0 406.301 406.301;" xml:space="preserve">
<g>
	<g>
		<path d="M296.384,23.2C267.652,7.966,235.626,0,203.106,0C93.135,0.028,4.008,89.199,4.036,199.17
			c0.013,51.82,20.227,101.594,56.35,138.75l-8,59.04c-0.74,4.356,2.19,8.487,6.546,9.227c2.011,0.342,4.076-0.097,5.774-1.227
			l45.12-29.92c97.158,51.516,217.682,14.517,269.199-82.641S393.541,74.716,296.384,23.2z M333.757,328.416
			c-34.595,34.698-81.653,54.085-130.651,53.824c-31.594-0.099-62.625-8.366-90.08-24c-2.475-1.429-5.525-1.429-8,0l-34.32,22.72
			l6.4-45.36c0.345-2.506-0.515-5.028-2.32-6.8C3.167,257.393,2.995,141.448,74.402,69.829s187.352-71.791,258.97-0.384
			S405.163,256.797,333.757,328.416z"/>
	</g>
</g>
<g>
	<g>
		<path d="M256.146,239.92c-2.329-1.223-5.111-1.223-7.44,0l-16,8c-3.28,0-20.72-1.92-39.52-38.72c-16-38.64-7.44-53.28-5.52-56
			l16.64-7.36c2.415-1.062,4.151-3.247,4.64-5.84c10.8-56-4.32-77.36-18.88-85.6c-5.883-2.922-12.394-4.351-18.96-4.16
			c-15.068-0.677-28.871,8.385-34.24,22.48c-10.24,25.84-22.16,80.56,13.6,156.72s86.48,100.72,113.04,108.96
			c3.548,1.109,7.243,1.675,10.96,1.68c18.029-1.074,33.025-14.257,36.4-32C313.666,291.92,306.386,266.64,256.146,239.92z
			 M295.106,305.76c-2.168,9.957-10.5,17.385-20.64,18.4c-2.09-0.011-4.166-0.335-6.16-0.96c-24-7.52-69.6-30.64-104-100.64
			c-34.4-70-22.48-120.48-13.12-144c3.121-8.113,11.267-13.151,19.92-12.32c3.819-0.09,7.603,0.733,11.04,2.4
			c13.6,8,17.68,30.56,11.76,64.56l-14.8,6.32c-0.661,0.289-1.28,0.665-1.84,1.12c-2.32,1.92-21.76,20,0.8,75.52
			c22.16,43.36,45.2,48,54.08,48c1.383,0.152,2.777,0.152,4.16,0c0.641-0.163,1.259-0.405,1.84-0.72l13.84-7.12
			C282.466,272.8,297.666,290.4,295.106,305.76z"/>
	</g>
</g>
<g>
</g>
<g>
</g>
<g>
</g>
<g>
</g>
<g>
</g>
<g>
</g>
<g>
</g>
<g>
</g>
<g>
</g>
<g>
</g>
<g>
</g>
<g>
</g>
<g>
</g>
<g>
</g>
<g>
</g>
</svg>
